<svg width="378" height="56" viewBox="0 0 378 56" fill="none" xmlns="http://www.w3.org/2000/svg">
<path d="M13.5788 46.2529C9.55166 46.2529 6.53127 44.8618 4.26598 41.9529C2.00069 39.0441 0.993896 34.997 0.993896 29.8117C0.993896 24.6264 2.12654 20.4529 4.39183 17.544C6.65712 14.6352 9.80336 13.1175 13.7047 13.1175C17.8577 13.1175 21.004 14.6352 23.2692 17.797H23.6468C23.2692 15.5205 23.1434 13.7499 23.1434 12.3587V0.723389H29.9393V45.7471H24.6536L23.5209 41.5735H23.1434C21.004 44.7353 17.8577 46.2529 13.5788 46.2529ZM15.4666 40.8147C18.2353 40.8147 20.2489 40.0559 21.5074 38.4117C22.7658 36.8941 23.3951 34.2382 23.5209 30.8235V29.8117C23.5209 25.7646 22.8917 22.9823 21.5074 21.2117C20.2489 19.5676 18.1094 18.6823 15.3407 18.6823C12.9496 18.6823 11.1877 19.694 9.80336 21.5911C8.54486 23.4882 7.91562 26.2705 7.91562 29.8117C7.91562 33.4794 8.54486 36.1353 9.80336 38.0323C11.0619 39.8029 12.9496 40.8147 15.4666 40.8147Z" fill="#020203"/>
<path d="M50.5786 46.2529C45.6705 46.2529 41.7691 44.8618 39.0004 41.9529C36.2318 39.0441 34.8474 34.997 34.8474 29.9382C34.8474 24.7529 36.1059 20.5793 38.7487 17.6705C41.3916 14.6352 44.9154 13.244 49.4459 13.244C53.599 13.244 56.9969 14.5087 59.3881 17.0381C61.7792 19.5676 63.0377 23.1088 63.0377 27.6617V31.3294H41.7691C41.895 34.4911 42.6501 36.7676 44.2861 38.5382C45.7963 40.1823 48.0616 41.0676 50.9561 41.0676C52.8439 41.0676 54.6058 40.9412 56.2418 40.5617C57.8779 40.1823 59.6397 39.6765 61.4016 38.7912V44.3559C59.7656 45.1147 58.1296 45.7471 56.3677 46C54.6058 46.1265 52.718 46.2529 50.5786 46.2529ZM49.3201 18.3029C47.1807 18.3029 45.4188 18.9352 44.1603 20.3264C42.9018 21.7176 42.1467 23.7411 41.895 26.2705H56.3677C56.3677 23.6146 55.7384 21.5911 54.4799 20.3264C53.2214 19.0617 51.4595 18.3029 49.3201 18.3029Z" fill="#020203"/>
<path d="M74.8674 45.7472L62.7859 13.75H69.9593L76.3776 32.3412C77.5103 35.503 78.1395 38.0324 78.3912 39.9295H78.6429C78.7688 38.5383 79.5239 36.0089 80.6565 32.3412L87.0748 13.75H94.2482L82.1667 45.7472H74.8674Z" fill="#020203"/>
<path d="M114.888 46.5059C114.888 48.5294 115.517 49.9206 116.65 50.9324C117.782 51.9441 119.67 52.45 122.439 52.45V55.1059C118.663 55.1059 116.02 54.3471 114.51 52.9559C112.874 51.5647 112.119 49.2882 112.119 46.2529V36.5147C112.119 32.5941 109.854 30.5705 105.449 30.4441V28.1676C107.84 28.1676 109.476 27.6617 110.483 26.6499C111.49 25.7646 111.993 24.247 111.993 22.3499V12.2322C111.993 6.41458 115.391 3.50574 122.313 3.37927V6.03516C119.67 6.16163 117.782 6.66752 116.524 7.67929C115.391 8.69105 114.762 10.2087 114.762 12.2322V21.0852C114.762 23.6146 114.384 25.5117 113.503 26.6499C112.622 27.9146 111.238 28.6735 109.476 29.0529V29.3058C111.364 29.6852 112.748 30.4441 113.503 31.7088C114.384 32.9735 114.762 34.7441 114.762 37.147V46.5059H114.888Z" fill="#E52521"/>
<path d="M139.428 46.253C134.898 46.253 131.374 44.8619 128.857 42.0795C126.34 39.2971 125.082 35.3765 125.082 30.3177C125.082 25.2589 126.34 21.3383 128.731 18.303C131.122 15.2677 134.52 13.75 138.673 13.75C142.323 13.75 145.217 15.0147 147.357 17.6706C149.496 20.2 150.503 23.7412 150.503 28.1677V30.4442H127.976C127.976 34.7442 128.983 38.0324 130.996 40.3089C133.01 42.5854 135.779 43.7236 139.428 43.7236C141.19 43.7236 142.826 43.5972 144.085 43.3442C145.343 43.0913 147.105 42.5854 149.245 41.7001V44.356C147.483 45.1148 145.847 45.6207 144.337 45.8736C142.952 46.1266 141.19 46.253 139.428 46.253ZM138.673 16.1529C135.653 16.1529 133.262 17.1647 131.374 19.1883C129.612 21.2118 128.479 24.1206 128.228 27.7883H147.609C147.609 24.1206 146.853 21.3383 145.217 19.1883C143.581 17.2912 141.442 16.1529 138.673 16.1529Z" fill="#020203"/>
<path d="M167.619 13.6234C169.884 13.6234 171.897 14.0028 173.534 14.8881C175.17 15.7734 176.68 17.1646 177.938 19.1882H178.064C177.938 16.7852 177.938 14.3823 177.938 12.1058V0.723389H180.707V45.7471H178.819L178.064 40.9412H177.812C175.421 44.4823 172.023 46.3794 167.619 46.3794C163.34 46.3794 160.068 44.9882 157.676 42.3323C155.411 39.6765 154.279 35.7559 154.279 30.5705C154.279 25.1323 155.411 20.9587 157.676 18.0499C160.068 15.1411 163.34 13.6234 167.619 13.6234ZM167.619 16.2793C164.221 16.2793 161.704 17.544 159.942 19.947C158.18 22.3499 157.425 25.8911 157.425 30.4441C157.425 39.297 160.823 43.85 167.744 43.85C171.268 43.85 173.911 42.8382 175.547 40.8147C177.183 38.7912 178.064 35.3764 178.064 30.5705V30.0647C178.064 25.2588 177.309 21.7176 175.673 19.5676C174.037 17.4176 171.268 16.2793 167.619 16.2793Z" fill="#020203"/>
<path d="M190.775 14.2559V34.6177C190.775 37.7795 191.404 40.0559 192.788 41.5736C194.173 42.9648 196.186 43.7236 198.955 43.7236C202.73 43.7236 205.373 42.8383 207.135 40.9412C208.897 39.0442 209.778 36.0089 209.778 31.7089V14.2559H212.547V45.6207H210.156L209.652 41.3206H209.526C207.513 44.6089 203.863 46.253 198.703 46.253C191.53 46.253 188.006 42.4589 188.006 34.7442V14.2559H190.775Z" fill="#020203"/>
<path d="M232.557 46.2529C228.026 46.2529 224.628 44.8617 222.111 41.9529C219.594 39.1705 218.336 35.1235 218.336 30.0646C218.336 24.8793 219.594 20.8323 222.237 17.9234C224.88 15.0146 228.404 13.6234 233.06 13.6234C235.703 13.6234 238.346 14.1293 240.863 15.0146L240.108 17.544C237.465 16.6587 235.074 16.1528 233.06 16.1528C229.285 16.1528 226.264 17.2911 224.377 19.694C222.489 22.097 221.356 25.5117 221.356 29.9382C221.356 34.2382 222.363 37.5264 224.377 39.9294C226.39 42.3323 229.159 43.4706 232.683 43.4706C235.577 43.4706 238.22 42.9647 240.611 41.9529V44.6088C238.472 45.747 235.829 46.2529 232.557 46.2529Z" fill="#020203"/>
<path d="M264.145 45.747L263.39 40.8147H263.138C261.628 42.8382 259.992 44.2294 258.356 45.1147C256.72 46 254.706 46.3794 252.441 46.3794C249.421 46.3794 247.03 45.6205 245.268 43.9764C243.506 42.4588 242.751 40.1823 242.751 37.3999C242.751 34.3646 244.009 31.9617 246.526 30.3176C249.043 28.6734 252.693 27.7881 257.601 27.6617L263.516 27.5352V25.5117C263.516 22.4764 262.887 20.3264 261.754 18.8087C260.495 17.2911 258.608 16.5322 255.965 16.5322C253.07 16.5322 250.05 17.2911 246.904 18.9352L245.897 16.4058C249.295 14.7616 252.693 14.0028 256.091 14.0028C259.489 14.0028 262.132 14.8881 263.768 16.6587C265.404 18.4293 266.285 21.2117 266.285 25.0058V45.8735H264.145V45.747ZM252.693 43.7235C256.091 43.7235 258.608 42.7117 260.621 40.8147C262.509 38.9176 263.516 36.2617 263.516 32.847V29.8117L258.104 30.0646C253.7 30.3176 250.553 30.9499 248.666 32.0882C246.778 33.2264 245.897 35.1235 245.897 37.5264C245.897 39.5499 246.526 41.0676 247.659 42.0794C248.791 43.0911 250.428 43.7235 252.693 43.7235Z" fill="#020203"/>
<path d="M281.638 43.7235C283.4 43.7235 285.036 43.597 286.295 43.2176V45.4941C284.91 46 283.274 46.1264 281.512 46.1264C278.744 46.1264 276.73 45.3676 275.346 43.8499C274.087 42.3323 273.332 40.0558 273.332 36.894V16.6587H268.676V15.0146L273.332 13.7499L274.717 6.66748H276.227V14.2557H285.414V16.7852H276.227V36.6411C276.227 39.0441 276.604 40.8146 277.485 41.9529C278.492 43.0911 279.876 43.7235 281.638 43.7235Z" fill="#020203"/>
<path d="M289.818 5.52931C289.818 3.63224 290.448 2.74695 291.58 2.74695C292.209 2.74695 292.587 2.99989 292.965 3.50577C293.342 4.01166 293.468 4.64401 293.468 5.52931C293.468 6.41461 293.342 7.04696 292.965 7.55285C292.587 8.05873 292.209 8.31167 291.58 8.31167C290.448 8.31167 289.818 7.42637 289.818 5.52931ZM293.09 45.7471H290.196V14.2558H293.09V45.7471Z" fill="#020203"/>
<path d="M326.44 29.9382C326.44 35.1235 325.182 39.0441 322.791 41.9529C320.274 44.8617 316.876 46.2529 312.597 46.2529C309.828 46.2529 307.437 45.6206 305.298 44.2294C303.158 42.8382 301.648 40.9411 300.515 38.5382C299.383 36.0088 298.879 33.2264 298.879 29.9382C298.879 24.7529 300.138 20.8323 302.529 17.9234C305.046 15.0146 308.444 13.6234 312.723 13.6234C317.002 13.6234 320.4 15.0146 322.791 17.9234C325.182 20.9587 326.44 24.8793 326.44 29.9382ZM301.774 29.9382C301.774 34.2382 302.655 37.6529 304.668 40.0558C306.556 42.4588 309.199 43.7235 312.723 43.7235C316.121 43.7235 318.889 42.4588 320.777 40.0558C322.665 37.6529 323.672 34.2382 323.672 29.9382C323.672 25.6382 322.665 22.2234 320.777 19.8205C318.889 17.4175 316.247 16.2793 312.723 16.2793C309.325 16.2793 306.556 17.4175 304.794 19.8205C302.655 22.2234 301.774 25.6382 301.774 29.9382Z" fill="#020203"/>
<path d="M354.002 45.747V25.2587C354.002 22.097 353.372 19.8205 351.988 18.3028C350.604 16.9117 348.59 16.1528 345.821 16.1528C342.046 16.1528 339.403 17.0381 337.641 19.0617C335.879 20.9587 334.998 23.994 334.998 28.294V45.6206H332.104V14.2558H334.495L334.998 18.5558H335.124C337.138 15.2675 340.787 13.6234 345.947 13.6234C352.995 13.6234 356.644 17.4175 356.644 25.1323V45.6206H354.002V45.747Z" fill="#020203"/>
<path d="M368.348 37.147C368.348 34.7441 368.726 32.9735 369.607 31.7088C370.488 30.4441 371.872 29.6852 373.634 29.3058V29.0529C371.746 28.6735 370.362 27.9146 369.607 26.6499C368.726 25.3852 368.348 23.4882 368.348 20.9587V12.1058C368.348 10.0822 367.719 8.56458 366.587 7.55281C365.454 6.54105 363.44 5.90869 360.797 5.90869V3.37927C364.195 3.37927 366.712 4.1381 368.474 5.65575C370.236 7.1734 371.117 9.32341 371.117 12.2322V22.3499C371.117 24.247 371.621 25.7646 372.627 26.6499C373.634 27.5352 375.396 28.0411 377.661 28.1676V30.4441C373.257 30.5705 370.991 32.5941 370.991 36.5147V46.2529C370.991 49.2882 370.236 51.4382 368.6 52.9559C366.964 54.4735 364.321 55.1059 360.672 55.1059V52.45C363.314 52.45 365.328 51.9441 366.461 50.9324C367.593 49.9206 368.223 48.5294 368.223 46.5059V37.147H368.348Z" fill="#E52521"/>
</svg>
